<svg width="530" height="530" viewBox="0 0 530 530" fill="none" xmlns="http://www.w3.org/2000/svg">
<rect width="530" height="530" fill="black"/>
<rect x="80" y="80" width="370" height="20" fill="white"/>
<rect x="430" y="80" width="20" height="66" fill="white"/>
<rect x="80" y="80" width="20" height="370" fill="white"/>
<rect x="80" y="430" width="191" height="20" fill="white"/>
<path d="M202 167V248.809C202 276.964 224.95 300 253 300C281.05 300 304 276.964 304 248.809C304 220.654 281.05 197.618 253 197.618C241.343 197.618 230.743 201.64 222 208.587V167H202ZM252.636 217.363C269.757 217.363 283.964 231.623 283.964 248.809C283.964 265.994 269.757 280.255 252.636 280.255C235.514 280.255 221.307 265.994 221.307 248.809C221.307 231.258 235.514 217.363 252.636 217.363Z" fill="white"/>
<path d="M450 167V248.809C450 276.964 427.05 300 399 300C370.95 300 348 276.964 348 248.809C348 220.654 370.95 197.618 399 197.618C410.657 197.618 421.257 201.64 430 208.587V167H450ZM399.364 217.363C382.243 217.363 368.036 231.623 368.036 248.809C368.036 265.994 382.243 280.255 399.364 280.255C416.486 280.255 430.693 265.994 430.693 248.809C430.693 231.258 416.486 217.363 399.364 217.363Z" fill="white"/>
<path d="M450 347H430V450H450V347Z" fill="white"/>
<path d="M336 167H316V300H336V167Z" fill="white"/>
<path d="M440 337C445.523 337 450 332.523 450 327C450 321.477 445.523 317 440 317C434.477 317 430 321.477 430 327C430 332.523 434.477 337 440 337Z" fill="white"/>
<path d="M302 450C307.523 450 312 445.523 312 440C312 434.477 307.523 430 302 430C296.477 430 292 434.477 292 440C292 445.523 296.477 450 302 450Z" fill="white"/>
<path fill-rule="evenodd" clip-rule="evenodd" d="M398 439.246C389.292 445.988 378.365 450 366.5 450C338.057 450 315 426.943 315 398.5C315 370.057 338.057 347 366.5 347C394.943 347 418 370.057 418 398.5C418 398.667 417.999 398.834 417.998 399H418V450H398V439.246ZM398 399C398 416.121 384.121 430 367 430C349.879 430 336 416.121 336 399C336 381.879 349.879 368 367 368C384.121 368 398 381.879 398 399Z" fill="white"/>
</svg>
